<svg width="100%" viewBox="0 0 1200 400" xmlns="http://www.w3.org/2000/svg" role="img">
  <title>Cinematic Developer Banner — ASD</title>

  <defs>
    <style>
      /* ─── PENGUIN BOB ─── */
      @keyframes penguinBob {
        0%,100% { transform: translate(680px,270px) translateY(0px) rotate(0deg); }
        25%      { transform: translate(680px,270px) translateY(-5px) rotate(-1.5deg); }
        75%      { transform: translate(680px,270px) translateY(-3px) rotate(1.5deg); }
      }
      /* ─── PENGUIN SHADOW ─── */
      @keyframes shadowPulse {
        0%,100% { rx:30; ry:8; opacity:0.45; }
        50%      { rx:26; ry:6; opacity:0.25; }
      }
      /* ─── EYE BLINK ─── */
      @keyframes eyeBlink {
        0%,90%,100% { transform: scaleY(1); }
        95%          { transform: scaleY(0.07); }
      }
      /* ─── BELLY SHINE ─── */
      @keyframes bellyShine {
        0%,100% { opacity:0.12; }
        50%      { opacity:0.28; }
      }
      /* ─── HEADPHONE GLOW ─── */
      @keyframes hpGlow {
        0%,100% { filter: drop-shadow(0 0 3px #38BDF8) drop-shadow(0 0 7px #38BDF8); }
        50%      { filter: drop-shadow(0 0 6px #A78BFA) drop-shadow(0 0 14px #A78BFA); }
      }
      /* ─── STEAM ─── */
      @keyframes steam1 {
        0%   { d:path("M50,18 Q45,10 52,2 T50,-18"); opacity:0; transform:translateY(0); }
        15%  { opacity:0.7; }
        85%  { opacity:0.25; }
        100% { d:path("M54,18 Q50,6 58,-4 T56,-22"); opacity:0; transform:translateY(-12px); }
      }
      @keyframes steam2 {
        0%   { d:path("M70,18 Q75,8 67,0 T70,-18"); opacity:0; transform:translateY(0); }
        15%  { opacity:0.65; }
        85%  { opacity:0.2; }
        100% { d:path("M66,18 Q70,6 62,-4 T64,-22"); opacity:0; transform:translateY(-10px); }
      }
      /* ─── RGB WAVE across keyboard ─── */
      @keyframes rgbWave {
        0%   { stop-color:#38BDF8; }
        33%  { stop-color:#A78BFA; }
        66%  { stop-color:#F472B6; }
        100% { stop-color:#34D399; }
      }
      /* ─── CONDENSATION DRIP ─── */
      @keyframes drip {
        0%,100% { opacity:0.7; transform:translateY(0); }
        60%      { opacity:0.4; transform:translateY(6px); }
      }
      /* ─── LENS FLARE ─── */
      @keyframes flare {
        0%,100% { opacity:0.12; transform:scale(1); }
        50%      { opacity:0.3; transform:scale(1.15); }
      }
      /* ─── AMBIENT LIGHT ─── */
      @keyframes ambientPulse {
        0%,100% { opacity:0.18; }
        50%      { opacity:0.32; }
      }
      /* ─── SCANLINE ─── */
      @keyframes scan {
        0%   { transform:translateY(-2px); opacity:0.6; }
        100% { transform:translateY(402px); opacity:0; }
      }
      /* ─── CURSOR BLINK ─── */
      @keyframes blink {
        0%,100% { opacity:1; }
        50%      { opacity:0; }
      }
      /* ─── FADE UP ─── */
      @keyframes fadeUp {
        from { opacity:0; transform:translateY(8px); }
        to   { opacity:1; transform:translateY(0); }
      }
      /* ─── ICE CUBE FLOAT ─── */
      @keyframes iceFloat {
        0%,100% { transform:rotate(12deg) translateY(0); }
        50%      { transform:rotate(15deg) translateY(-2px); }
      }
      @keyframes iceFloat2 {
        0%,100% { transform:rotate(-8deg) translateY(0); }
        50%      { transform:rotate(-11deg) translateY(-3px); }
      }
    </style>

    <!-- ── GRADIENTS & FILTERS ── -->

    <filter id="glow3" x="-60%" y="-60%" width="220%" height="220%">
      <feGaussianBlur stdDeviation="3" result="b"/>
      <feMerge><feMergeNode in="b"/><feMergeNode in="SourceGraphic"/></feMerge>
    </filter>
    <filter id="glow8" x="-80%" y="-80%" width="260%" height="260%">
      <feGaussianBlur stdDeviation="8" result="b"/>
      <feMerge><feMergeNode in="b"/><feMergeNode in="SourceGraphic"/></feMerge>
    </filter>
    <filter id="softBlur" x="-30%" y="-30%" width="160%" height="160%">
      <feGaussianBlur stdDeviation="5"/>
    </filter>
    <filter id="glassSpec" x="-20%" y="-20%" width="140%" height="140%">
      <feSpecularLighting in="SourceAlpha" surfaceScale="3" specularConstant="1" specularExponent="40"
        lighting-color="#ffffff" result="spec">
        <fePointLight x="800" y="-80" z="350"/>
      </feSpecularLighting>
      <feComposite in="spec" in2="SourceAlpha" operator="in" result="m"/>
      <feMerge><feMergeNode in="SourceGraphic"/><feMergeNode in="m"/></feMerge>
    </filter>

    <!-- background radial -->
    <radialGradient id="bgRadial" cx="65%" cy="28%" r="55%">
      <stop offset="0%"   stop-color="#1A3A5C" stop-opacity="0.5"/>
      <stop offset="50%"  stop-color="#0A1628" stop-opacity="0.3"/>
      <stop offset="100%" stop-color="#020617" stop-opacity="1"/>
    </radialGradient>

    <!-- ambient light pool behind penguin -->
    <radialGradient id="penguinAmbient" cx="50%" cy="100%" r="60%">
      <stop offset="0%"   stop-color="#38BDF8" stop-opacity="0.35"/>
      <stop offset="100%" stop-color="#38BDF8" stop-opacity="0"/>
    </radialGradient>

    <!-- RGB keyboard gradient -->
    <linearGradient id="rgbGrad" x1="0%" y1="0%" x2="100%" y2="0%">
      <stop offset="0%"   stop-color="#38BDF8"><animate attributeName="stop-color" values="#38BDF8;#A78BFA;#F472B6;#34D399;#38BDF8" dur="4s" repeatCount="indefinite"/></stop>
      <stop offset="33%"  stop-color="#A78BFA"><animate attributeName="stop-color" values="#A78BFA;#F472B6;#34D399;#38BDF8;#A78BFA" dur="4s" repeatCount="indefinite"/></stop>
      <stop offset="66%"  stop-color="#F472B6"><animate attributeName="stop-color" values="#F472B6;#34D399;#38BDF8;#A78BFA;#F472B6" dur="4s" repeatCount="indefinite"/></stop>
      <stop offset="100%" stop-color="#34D399"><animate attributeName="stop-color" values="#34D399;#38BDF8;#A78BFA;#F472B6;#34D399" dur="4s" repeatCount="indefinite"/></stop>
    </linearGradient>

    <!-- keyboard body -->
    <linearGradient id="kbBase" x1="0%" y1="0%" x2="0%" y2="100%">
      <stop offset="0%"   stop-color="#141C2E"/>
      <stop offset="100%" stop-color="#080D1A"/>
    </linearGradient>

    <!-- glass cup -->
    <linearGradient id="glassGrad" x1="0%" y1="0%" x2="100%" y2="100%">
      <stop offset="0%"   stop-color="#FFFFFF" stop-opacity="0.22"/>
      <stop offset="35%"  stop-color="#E2E8F0" stop-opacity="0.08"/>
      <stop offset="70%"  stop-color="#94A3B8" stop-opacity="0.04"/>
      <stop offset="100%" stop-color="#475569" stop-opacity="0.14"/>
    </linearGradient>

    <!-- latte layers -->
    <linearGradient id="latteGrad" x1="0%" y1="0%" x2="0%" y2="100%">
      <stop offset="0%"   stop-color="#C8956A" stop-opacity="0.92"/>
      <stop offset="30%"  stop-color="#7A5230" stop-opacity="0.9"/>
      <stop offset="100%" stop-color="#2A1608" stop-opacity="0.97"/>
    </linearGradient>

    <!-- foam ring on top -->
    <radialGradient id="foamRing" cx="50%" cy="50%" r="50%">
      <stop offset="0%"   stop-color="#F5DEB3" stop-opacity="0.9"/>
      <stop offset="60%"  stop-color="#D4A574" stop-opacity="0.6"/>
      <stop offset="100%" stop-color="#8B6F47" stop-opacity="0.2"/>
    </radialGradient>

    <!-- droplet -->
    <radialGradient id="dropG" cx="30%" cy="25%" r="70%">
      <stop offset="0%"   stop-color="#FFFFFF" stop-opacity="0.92"/>
      <stop offset="55%"  stop-color="#BAE6FF" stop-opacity="0.35"/>
      <stop offset="100%" stop-color="#475569" stop-opacity="0.05"/>
    </radialGradient>

    <!-- penguin body shading -->
    <radialGradient id="tuxBody" cx="35%" cy="30%" r="70%">
      <stop offset="0%"   stop-color="#1E293B"/>
      <stop offset="60%"  stop-color="#0E1520"/>
      <stop offset="100%" stop-color="#050A12"/>
    </radialGradient>
    <radialGradient id="tuxHead" cx="38%" cy="32%" r="65%">
      <stop offset="0%"   stop-color="#1E2A3A"/>
      <stop offset="55%"  stop-color="#0C1520"/>
      <stop offset="100%" stop-color="#040810"/>
    </radialGradient>

    <!-- belly -->
    <radialGradient id="bellyGrad" cx="45%" cy="40%" r="55%">
      <stop offset="0%"   stop-color="#FFFFFF"/>
      <stop offset="70%"  stop-color="#F0F4FF"/>
      <stop offset="100%" stop-color="#CBD5E1"/>
    </radialGradient>

    <!-- beak -->
    <linearGradient id="beakGrad" x1="0%" y1="0%" x2="0%" y2="100%">
      <stop offset="0%"   stop-color="#FBBF24"/>
      <stop offset="100%" stop-color="#D97706"/>
    </linearGradient>

    <!-- feet -->
    <linearGradient id="feetGrad" x1="0%" y1="0%" x2="0%" y2="100%">
      <stop offset="0%"   stop-color="#F59E0B"/>
      <stop offset="100%" stop-color="#B45309"/>
    </linearGradient>

    <!-- wing highlight -->
    <linearGradient id="wingHL" x1="0%" y1="0%" x2="100%" y2="0%">
      <stop offset="0%"   stop-color="#334155" stop-opacity="0.9"/>
      <stop offset="50%"  stop-color="#1E293B" stop-opacity="0.5"/>
      <stop offset="100%" stop-color="#0F1A2E" stop-opacity="0"/>
    </linearGradient>

    <!-- vignette -->
    <radialGradient id="vignette" cx="50%" cy="50%" r="70%">
      <stop offset="45%"  stop-color="transparent"/>
      <stop offset="100%" stop-color="#010409" stop-opacity="0.75"/>
    </radialGradient>

    <!-- horizontal shine on cup -->
    <linearGradient id="cupShine" x1="0%" y1="0%" x2="100%" y2="0%">
      <stop offset="0%"   stop-color="#FFFFFF" stop-opacity="0"/>
      <stop offset="20%"  stop-color="#FFFFFF" stop-opacity="0.15"/>
      <stop offset="40%"  stop-color="#FFFFFF" stop-opacity="0.05"/>
      <stop offset="100%" stop-color="#FFFFFF" stop-opacity="0"/>
    </linearGradient>
  </defs>

  <!-- ░░ BASE ░░ -->
  <rect width="1200" height="400" fill="#020617"/>
  <rect width="1200" height="400" fill="url(#bgRadial)"/>

  <!-- subtle grid -->
  <g opacity="0.025" stroke="white" stroke-width="1">
    <line x1="0"    y1="100" x2="1200" y2="100"/>
    <line x1="0"    y1="200" x2="1200" y2="200"/>
    <line x1="0"    y1="300" x2="1200" y2="300"/>
    <line x1="300"  y1="0"   x2="300"  y2="400"/>
    <line x1="600"  y1="0"   x2="600"  y2="400"/>
    <line x1="900"  y1="0"   x2="900"  y2="400"/>
  </g>

  <!-- ░░ VOLUMETRIC LIGHT RAYS ░░ -->
  <g opacity="0.08" filter="url(#softBlur)">
    <polygon points="650,0 720,400 580,400" fill="url(#rgbGrad)"/>
    <polygon points="880,0 940,400 820,400" fill="url(#rgbGrad)" opacity="0.6"/>
  </g>

  <!-- ░░ AMBIENT GLOW under penguin ░░ -->
  <ellipse cx="740" cy="395" rx="120" ry="40" fill="url(#penguinAmbient)"
    style="animation: ambientPulse 3s ease-in-out infinite"/>

  <!-- ░░ KEYBOARD ░░ -->
  <g transform="translate(80, 235)">
    <!-- body -->
    <rect x="0" y="0" width="830" height="145" rx="14" fill="url(#kbBase)" stroke="#1E293B" stroke-width="1.5"/>
    <!-- RGB underglow strip -->
    <rect x="6" y="130" width="818" height="8" rx="4" fill="url(#rgbGrad)" opacity="0.7" filter="url(#glow3)"/>

    <!-- KEY MACRO (row 1 — function row) -->
    <g id="fnRow">
      <!-- helper: 14 keys spaced 58px apart -->
      <g transform="translate(10,10)">
        <!-- key bg template repeat via translate -->
        <g fill="#1A2438" stroke="#263248" stroke-width="1">
          <rect x="0"   y="0" width="46" height="44" rx="6"/>
          <rect x="56"  y="0" width="46" height="44" rx="6"/>
          <rect x="112" y="0" width="46" height="44" rx="6"/>
          <rect x="168" y="0" width="46" height="44" rx="6"/>
          <rect x="224" y="0" width="46" height="44" rx="6"/>
          <rect x="280" y="0" width="46" height="44" rx="6"/>
          <rect x="336" y="0" width="46" height="44" rx="6"/>
          <rect x="392" y="0" width="46" height="44" rx="6"/>
          <rect x="448" y="0" width="46" height="44" rx="6"/>
          <rect x="504" y="0" width="46" height="44" rx="6"/>
          <rect x="560" y="0" width="46" height="44" rx="6"/>
          <rect x="616" y="0" width="46" height="44" rx="6"/>
          <rect x="672" y="0" width="46" height="44" rx="6"/>
          <rect x="728" y="0" width="70" height="44" rx="6"/>
        </g>
        <!-- RGB glow face on keys row1 -->
        <g fill="url(#rgbGrad)" opacity="0.35" filter="url(#glow3)">
          <rect x="2"   y="2" width="42" height="40" rx="5"/>
          <rect x="58"  y="2" width="42" height="40" rx="5"/>
          <rect x="114" y="2" width="42" height="40" rx="5"/>
          <rect x="170" y="2" width="42" height="40" rx="5"/>
          <rect x="226" y="2" width="42" height="40" rx="5"/>
          <rect x="282" y="2" width="42" height="40" rx="5"/>
          <rect x="338" y="2" width="42" height="40" rx="5"/>
          <rect x="394" y="2" width="42" height="40" rx="5"/>
          <rect x="450" y="2" width="42" height="40" rx="5"/>
          <rect x="506" y="2" width="42" height="40" rx="5"/>
          <rect x="562" y="2" width="42" height="40" rx="5"/>
          <rect x="618" y="2" width="42" height="40" rx="5"/>
          <rect x="674" y="2" width="42" height="40" rx="5"/>
          <rect x="730" y="2" width="66" height="40" rx="5"/>
        </g>
        <!-- Labels row1 -->
        <g font-family="'Courier New',monospace" font-size="11" fill="#94A3B8" text-anchor="middle" opacity="0.8">
          <text x="23"  y="27">esc</text>
          <text x="79"  y="27">F1</text>
          <text x="135" y="27">F2</text>
          <text x="191" y="27">F3</text>
          <text x="247" y="27">F4</text>
          <text x="303" y="27">F5</text>
          <text x="359" y="27">F6</text>
          <text x="415" y="27">F7</text>
          <text x="471" y="27">F8</text>
          <text x="527" y="27">F9</text>
          <text x="583" y="27">F10</text>
          <text x="641" y="27">F11</text>
          <text x="697" y="27">F12</text>
          <text x="765" y="27">del</text>
        </g>
      </g>
    </g>

    <!-- KEY ROW 2 — qwerty row -->
    <g transform="translate(10,62)">
      <g fill="#1A2438" stroke="#263248" stroke-width="1">
        <rect x="0"   y="0" width="46" height="44" rx="6"/>
        <rect x="56"  y="0" width="46" height="44" rx="6"/>
        <rect x="112" y="0" width="46" height="44" rx="6"/>
        <rect x="168" y="0" width="46" height="44" rx="6"/>
        <rect x="224" y="0" width="46" height="44" rx="6"/>
        <rect x="280" y="0" width="46" height="44" rx="6"/>
        <rect x="336" y="0" width="46" height="44" rx="6"/>
        <rect x="392" y="0" width="46" height="44" rx="6"/>
        <rect x="448" y="0" width="46" height="44" rx="6"/>
        <rect x="504" y="0" width="46" height="44" rx="6"/>
        <rect x="560" y="0" width="46" height="44" rx="6"/>
        <!-- backspace wide -->
        <rect x="616" y="0" width="82" height="44" rx="6"/>
      </g>
      <g fill="url(#rgbGrad)" opacity="0.3" filter="url(#glow3)">
        <rect x="2"   y="2" width="42" height="40" rx="5"/>
        <rect x="58"  y="2" width="42" height="40" rx="5"/>
        <rect x="114" y="2" width="42" height="40" rx="5"/>
        <rect x="170" y="2" width="42" height="40" rx="5"/>
        <rect x="226" y="2" width="42" height="40" rx="5"/>
        <rect x="282" y="2" width="42" height="40" rx="5"/>
        <rect x="338" y="2" width="42" height="40" rx="5"/>
        <rect x="394" y="2" width="42" height="40" rx="5"/>
        <rect x="450" y="2" width="42" height="40" rx="5"/>
        <rect x="506" y="2" width="42" height="40" rx="5"/>
        <rect x="562" y="2" width="42" height="40" rx="5"/>
        <rect x="618" y="2" width="78" height="40" rx="5"/>
      </g>
      <g font-family="'Courier New',monospace" font-size="13" fill="#CBD5E1" text-anchor="middle" opacity="0.9">
        <text x="23"  y="28">Q</text>
        <text x="79"  y="28">W</text>
        <text x="135" y="28">E</text>
        <text x="191" y="28">R</text>
        <text x="247" y="28">T</text>
        <text x="303" y="28">Y</text>
        <text x="359" y="28">U</text>
        <text x="415" y="28">I</text>
        <text x="471" y="28">O</text>
        <text x="527" y="28">P</text>
        <text x="583" y="28">[</text>
        <text x="657" y="28" font-size="10">⌫</text>
      </g>
    </g>

    <!-- SPACEBAR row -->
    <rect x="240" y="115" width="360" height="22" rx="11" fill="#1A2438" stroke="#263248" stroke-width="1"/>
    <rect x="244" y="119" width="352" height="14" rx="7" fill="url(#rgbGrad)" opacity="0.55" filter="url(#glow3)"/>
  </g>

  <!-- ░░ COFFEE CUP ░░ -->
  <g transform="translate(300, 130)" filter="url(#glassSpec)">
    <!-- saucer shadow -->
    <ellipse cx="65" cy="152" rx="70" ry="10" fill="#000" opacity="0.5" filter="url(#softBlur)"/>
    <!-- saucer -->
    <ellipse cx="65" cy="148" rx="72" ry="11" fill="#0F172A" stroke="#1E293B" stroke-width="1"/>
    <ellipse cx="65" cy="146" rx="60" ry="7"  fill="#141C2E"/>

    <!-- cup body glass -->
    <path d="M22,22 L108,22 C118,22 123,28 122,38 L116,118 C115,132 105,142 90,142 L40,142 C25,142 15,132 14,118 L8,38 C7,28 12,22 22,22 Z"
      fill="url(#glassGrad)" stroke="#94A3B8" stroke-width="1.2" stroke-opacity="0.35"/>

    <!-- latte fill -->
    <path d="M30,27 L100,27 C108,27 112,31 111,39 L105,112 C104,124 96,130 82,130 L48,130 C34,130 26,124 25,112 L19,39 C18,31 22,27 30,27 Z"
      fill="url(#latteGrad)"/>

    <!-- foam layer on top -->
    <ellipse cx="65" cy="28" rx="38" ry="6" fill="url(#foamRing)" opacity="0.85"/>
    <ellipse cx="65" cy="27" rx="24" ry="3.5" fill="#F5DEB3" opacity="0.5"/>

    <!-- latte art swirl -->
    <path d="M55,32 Q65,25 75,32 Q68,38 60,34 Q65,28 70,34" fill="none" stroke="#C8956A" stroke-width="1.5" stroke-opacity="0.7" stroke-linecap="round"/>

    <!-- ice cubes -->
    <g style="animation: iceFloat 3.5s ease-in-out infinite; transform-origin: 58px 65px">
      <rect x="42" y="50" width="20" height="20" rx="4" fill="#E0F2FE" opacity="0.55" transform="rotate(12 52 60)"/>
      <rect x="44" y="52" width="16" height="16" rx="3" fill="#F0F9FF" opacity="0.3" transform="rotate(12 52 60)"/>
    </g>
    <g style="animation: iceFloat2 4s ease-in-out infinite; transform-origin: 80px 72px">
      <rect x="68" y="62" width="16" height="16" rx="3" fill="#E0F2FE" opacity="0.5" transform="rotate(-8 76 70)"/>
    </g>

    <!-- glass highlight vertical strip -->
    <path d="M22,22 L22,140" stroke="url(#cupShine)" stroke-width="8" stroke-linecap="round" opacity="0.6"/>

    <!-- condensation droplets -->
    <g>
      <circle cx="18"  cy="68" r="4.5" fill="url(#dropG)" style="animation: drip 3.8s ease-in-out 0s infinite"/>
      <circle cx="116" cy="80" r="5"   fill="url(#dropG)" style="animation: drip 3.2s ease-in-out 0.4s infinite"/>
      <circle cx="14"  cy="98" r="3.5" fill="url(#dropG)" style="animation: drip 4.1s ease-in-out 0.8s infinite"/>
      <circle cx="118" cy="55" r="4"   fill="url(#dropG)" style="animation: drip 2.9s ease-in-out 1.2s infinite"/>
      <circle cx="20"  cy="112" r="3"  fill="url(#dropG)" style="animation: drip 3.5s ease-in-out 0.6s infinite"/>
      <circle cx="112" cy="105" r="3.5" fill="url(#dropG)" style="animation: drip 4.4s ease-in-out 1.5s infinite"/>
    </g>

    <!-- steam wisps -->
    <g fill="none" stroke-linecap="round">
      <path d="M48,20 Q43,12 50,4 T47,-15" stroke="#F1F5F9" stroke-width="2.5" stroke-opacity="0"
        style="animation: steam1 3.8s ease-out 0s infinite"/>
      <path d="M72,20 Q79,10 70,2 T73,-16" stroke="#E2E8F0" stroke-width="2" stroke-opacity="0"
        style="animation: steam2 3.4s ease-out 0.9s infinite"/>
      <path d="M60,20 Q55,11 62,3 T59,-14" stroke="#F1F5F9" stroke-width="1.8" stroke-opacity="0"
        style="animation: steam1 4.2s ease-out 1.6s infinite"/>
    </g>
  </g>

  <!-- ░░ TUX PENGUIN ░░  — full animated, bobbing -->
  <g style="animation: penguinBob 3.8s ease-in-out infinite">

    <!-- shadow (separate so it scales differently) -->
    <ellipse cx="740" cy="380" rx="30" ry="7" fill="#000">
      <animate attributeName="rx" values="30;24;30" dur="3.8s" repeatCount="indefinite"/>
      <animate attributeName="ry" values="7;5;7"   dur="3.8s" repeatCount="indefinite"/>
      <animate attributeName="opacity" values="0.45;0.22;0.45" dur="3.8s" repeatCount="indefinite"/>
    </ellipse>

    <!-- ambient light pool on keyboard surface -->
    <ellipse cx="740" cy="374" rx="55" ry="14" fill="#38BDF8" opacity="0"
      style="animation: ambientPulse 3.8s ease-in-out infinite"/>

    <!-- LEFT WING -->
    <path d="M703,318 C690,320 684,334 686,346 C688,356 698,357 706,352 C708,344 708,332 703,318 Z"
      fill="url(#tuxBody)" stroke="#1E3348" stroke-width="1"/>
    <path d="M703,318 C699,325 697,336 698,346" fill="none" stroke="url(#wingHL)" stroke-width="2" stroke-linecap="round"/>

    <!-- RIGHT WING -->
    <path d="M777,318 C790,320 796,334 794,346 C792,356 782,357 774,352 C772,344 772,332 777,318 Z"
      fill="url(#tuxBody)" stroke="#1E3348" stroke-width="1"/>

    <!-- BODY -->
    <path d="M708,300 C702,265 778,265 772,300 C772,325 708,325 708,300 Z"
      fill="url(#tuxBody)" stroke="#1A3050" stroke-width="1.5"/>

    <!-- BELLY -->
    <path d="M720,302 C718,274 762,274 760,302 C760,316 720,316 720,302 Z"
      fill="url(#bellyGrad)"/>

    <!-- belly shine -->
    <ellipse cx="737" cy="285" rx="10" ry="14" fill="white" opacity="0"
      style="animation: bellyShine 3s ease-in-out infinite"/>

    <!-- LEFT FOOT -->
    <path d="M720,326 L715,340 L710,340 L709,344 L727,344 L727,340 L722,340 Z"
      fill="url(#feetGrad)" stroke="#B45309" stroke-width="0.5"/>

    <!-- RIGHT FOOT -->
    <path d="M760,326 L765,340 L770,340 L771,344 L753,344 L753,340 L758,340 Z"
      fill="url(#feetGrad)" stroke="#B45309" stroke-width="0.5"/>

    <!-- HEAD -->
    <circle cx="740" cy="276" r="22" fill="url(#tuxHead)" stroke="#1A3050" stroke-width="1.5"/>

    <!-- head rim light (cyan) -->
    <path d="M720,268 C718,254 762,254 762,268" fill="none" stroke="#38BDF8" stroke-width="1" stroke-opacity="0.35" stroke-linecap="round"/>

    <!-- FACE — left eye white sclera -->
    <ellipse cx="731" cy="272" rx="5.5" ry="5.5" fill="#F8FAFC"/>
    <!-- left pupil -->
    <ellipse cx="732" cy="273" rx="3" ry="3" fill="#050D18"
      style="animation: eyeBlink 5.5s ease-in-out 1s infinite; transform-origin: 731px 272px"/>
    <!-- left eye shine -->
    <circle cx="733" cy="271" r="1.1" fill="white" opacity="0.9"/>

    <!-- FACE — right eye white sclera -->
    <ellipse cx="749" cy="272" rx="5.5" ry="5.5" fill="#F8FAFC"/>
    <!-- right pupil -->
    <ellipse cx="750" cy="273" rx="3" ry="3" fill="#050D18"
      style="animation: eyeBlink 5.5s ease-in-out 1s infinite; transform-origin: 749px 272px"/>
    <!-- right eye shine -->
    <circle cx="751" cy="271" r="1.1" fill="white" opacity="0.9"/>

    <!-- BEAK upper -->
    <path d="M737,280 Q740,275 743,280 L741,286 Q740,288 739,286 Z"
      fill="url(#beakGrad)" stroke="#D97706" stroke-width="0.5"/>

    <!-- HEADPHONES arc -->
    <path d="M718,268 C715,250 765,250 762,268"
      fill="none" stroke="#38BDF8" stroke-width="3.5" stroke-linecap="round"
      style="animation: hpGlow 3s ease-in-out infinite"/>
    <!-- left cup -->
    <rect x="712" y="264" width="10" height="13" rx="3" fill="#0F172A" stroke="#38BDF8" stroke-width="1.8"
      style="animation: hpGlow 3s ease-in-out infinite"/>
    <!-- right cup -->
    <rect x="758" y="264" width="10" height="13" rx="3" fill="#0F172A" stroke="#38BDF8" stroke-width="1.8"
      style="animation: hpGlow 3s ease-in-out infinite"/>
    <!-- cable mic -->
    <path d="M722,277 L718,290 L724,290" fill="none" stroke="#38BDF8" stroke-width="1.2" stroke-linecap="round" stroke-linejoin="round" stroke-opacity="0.7"/>
    <!-- mic dot -->
    <circle cx="724" cy="290" r="2" fill="#38BDF8" opacity="0.8" filter="url(#glow3)"/>

    <!-- body rim light -->
    <path d="M708,300 C702,265 778,265 772,300"
      fill="none" stroke="#38BDF8" stroke-width="1" stroke-opacity="0.2" stroke-linecap="round"/>

  </g><!-- end penguinBob group -->

  <!-- ░░ LENS FLARE ░░ -->
  <g transform="translate(980, 55)" style="animation: flare 5s ease-in-out infinite">
    <circle cx="0" cy="0" r="28" fill="#FFFFFF" opacity="0.08"/>
    <circle cx="0" cy="0" r="13" fill="#38BDF8" opacity="0.2"/>
    <circle cx="0" cy="0" r="5"  fill="#FFFFFF" opacity="0.4"/>
    <line x1="-50" y1="0" x2="50" y2="0" stroke="#FFFFFF" stroke-width="1.5" opacity="0.15"/>
    <line x1="0" y1="-50" x2="0" y2="50" stroke="#FFFFFF" stroke-width="1.5" opacity="0.15"/>
    <line x1="-35" y1="-35" x2="35" y2="35" stroke="#FFFFFF" stroke-width="0.8" opacity="0.08"/>
    <line x1="35" y1="-35" x2="-35" y2="35" stroke="#FFFFFF" stroke-width="0.8" opacity="0.08"/>
  </g>

  <!-- secondary micro flare -->
  <g transform="translate(240, 100)" style="animation: flare 7s ease-in-out 2s infinite">
    <circle cx="0" cy="0" r="14" fill="#A78BFA" opacity="0.08"/>
    <circle cx="0" cy="0" r="5"  fill="#FFFFFF" opacity="0.18"/>
  </g>

  <!-- ░░ SCAN LINE (one pass on load) ░░ -->
  <rect x="0" y="0" width="1200" height="1.5" fill="#38BDF8" opacity="0"
    style="animation: scan 2s linear 0.3s 1 forwards"/>

  <!-- ░░ VIGNETTE ░░ -->
  <rect width="1200" height="400" fill="url(#vignette)" pointer-events="none"/>

  <!-- ░░ FILM GRAIN ░░ -->
  <rect width="1200" height="400" opacity="0.035" pointer-events="none">
    <animate attributeName="x" values="0;-4;2;-2;0" dur="0.08s" repeatCount="indefinite"/>
  </rect>

  <!-- ░░ BOTTOM BADGE BAR ░░ -->
  <g style="animation: fadeUp 0.8s ease 0.5s both">
    <text x="50" y="375" font-family="'Courier New',monospace" font-size="10" fill="#334155" letter-spacing="3.5">
      PYTHON <tspan fill="#1E3A5F">·</tspan> DOCKER <tspan fill="#1E3A5F">·</tspan> LINUX <tspan fill="#1E3A5F">·</tspan> AI/ML <tspan fill="#1E3A5F">·</tspan> FULL-STACK <tspan fill="#1E3A5F">·</tspan> FastAPI <tspan fill="#1E3A5F">·</tspan> TypeScript
    </text>
  </g>

  <!-- signature -->
  <text x="1170" y="392" text-anchor="end" font-family="'Courier New',monospace" font-size="8" fill="#1E293B">✦ crafted with ☕</text>

  <!-- cursor blink -->
  <text x="1165" y="32" font-family="'Courier New',monospace" font-size="14" fill="#38BDF8" opacity="0.5"
    style="animation: blink 1.2s step-end infinite">▋</text>

</svg>
