<svg width="900" height="410" viewBox="0 0 900 410" xmlns="http://www.w3.org/2000/svg">

<rect width="900" height="410" fill="#070B15"/>

<!-- Title -->
<text x="38" y="38" font-family="Courier New, monospace" font-size="11" fill="#2E7A96" letter-spacing="4">
⚙ TECH STACKS I ENGINEER WITH
</text>

<!-- Header -->
<rect x="12" y="48" width="876" height="36" fill="#0E2235"/>

<!-- Column Headers -->
<text x="101" y="72" text-anchor="middle" fill="#3AAFCC">🖥 Interface</text>
<text x="277" y="72" text-anchor="middle" fill="#3AAFCC">⚙ Backend</text>
<text x="452" y="72" text-anchor="middle" fill="#3AAFCC">🗄 Data</text>
<text x="627" y="72" text-anchor="middle" fill="#3AAFCC">🔧 Systems</text>
<text x="801" y="72" text-anchor="middle" fill="#3AAFCC">☁ Infrastructure</text>

<!-- ROW 1 -->
<text x="101" y="110" text-anchor="middle" fill="#6B8BAA">HTML5</text>
<text x="277" y="110" text-anchor="middle" fill="#6B8BAA">Python</text>
<text x="452" y="110" text-anchor="middle" fill="#6B8BAA">PostgreSQL</text>
<text x="627" y="110" text-anchor="middle" fill="#6B8BAA">Git</text>
<text x="801" y="110" text-anchor="middle" fill="#6B8BAA">AWS</text>

<!-- ROW 2 -->
<text x="101" y="150" text-anchor="middle" fill="#6B8BAA">CSS3</text>
<text x="277" y="150" text-anchor="middle" fill="#6B8BAA">Django</text>
<text x="452" y="150" text-anchor="middle" fill="#6B8BAA">Redis</text>
<text x="627" y="150" text-anchor="middle" fill="#6B8BAA">Docker</text>
<text x="801" y="150" text-anchor="middle" fill="#6B8BAA">Linux</text>

<!-- ROW 3 -->
<text x="101" y="190" text-anchor="middle" fill="#6B8BAA">JavaScript</text>
<text x="277" y="190" text-anchor="middle" fill="#6B8BAA">FastAPI</text>
<text x="452" y="190" text-anchor="middle" fill="#6B8BAA">MongoDB</text>
<text x="627" y="190" text-anchor="middle" fill="#6B8BAA">Celery</text>
<text x="801" y="190" text-anchor="middle" fill="#6B8BAA">Docker</text>

<!-- ROW 4 -->
<text x="101" y="230" text-anchor="middle" fill="#6B8BAA">React</text>
<text x="277" y="230" text-anchor="middle" fill="#6B8BAA">AsyncIO</text>
<text x="452" y="230" text-anchor="middle" fill="#6B8BAA">S3</text>
<text x="627" y="230" text-anchor="middle" fill="#6B8BAA">Nginx</text>
<text x="801" y="230" text-anchor="middle" fill="#6B8BAA">Kubernetes</text>

<!-- ROW 5 -->
<text x="101" y="270" text-anchor="middle" fill="#6B8BAA">TypeScript</text>
<text x="277" y="270" text-anchor="middle" fill="#6B8BAA">REST APIs</text>
<text x="452" y="270" text-anchor="middle" fill="#6B8BAA">Data Pipelines</text>
<text x="627" y="270" text-anchor="middle" fill="#6B8BAA">CI/CD</text>
<text x="801" y="270" text-anchor="middle" fill="#6B8BAA">VPC</text>

<!-- ROW 6 -->
<text x="101" y="310" text-anchor="middle" fill="#6B8BAA">Tailwind</text>
<text x="277" y="310" text-anchor="middle" fill="#6B8BAA">NumPy / Pandas</text>
<text x="452" y="310" text-anchor="middle" fill="#6B8BAA">ETL Systems</text>
<text x="627" y="310" text-anchor="middle" fill="#6B8BAA">HuggingFace</text>
<text x="801" y="310" text-anchor="middle" fill="#6B8BAA">Load Balancing</text>

<!-- ROW 7 -->
<text x="101" y="350" text-anchor="middle" fill="#6B8BAA">UI Systems</text>
<text x="277" y="350" text-anchor="middle" fill="#6B8BAA">PyTorch</text>
<text x="452" y="350" text-anchor="middle" fill="#6B8BAA">Vector DB (FAISS)</text>
<text x="627" y="350" text-anchor="middle" fill="#6B8BAA">Transformers · LangChain · OpenAI</text>
<text x="801" y="350" text-anchor="middle" fill="#6B8BAA">Cloud Architecture</text>

</svg>
